<svg width="426" height="426" viewBox="0 0 426 426" fill="none" xmlns="http://www.w3.org/2000/svg">
<g filter="url(#filter0_d_4_41)">
<mask id="path-1-inside-1_4_41" fill="white">
<path d="M245.765 79.1176C245.765 90.8191 248.918 102.304 254.892 112.366C260.867 122.427 269.442 130.692 279.717 136.293L281.728 132.603C272.117 127.364 264.095 119.632 258.506 110.22C252.917 100.808 249.968 90.0639 249.968 79.1176H245.765Z"/>
</mask>
<path d="M245.765 79.1176C245.765 90.8191 248.918 102.304 254.892 112.366C260.867 122.427 269.442 130.692 279.717 136.293L281.728 132.603C272.117 127.364 264.095 119.632 258.506 110.22C252.917 100.808 249.968 90.0639 249.968 79.1176H245.765Z" fill="white" stroke="white" stroke-width="2.06723" mask="url(#path-1-inside-1_4_41)"/>
<path d="M101.747 267.413C110.306 266.823 117.832 266.528 124.325 266.528C142.623 266.528 151.772 272.984 151.772 285.896C151.772 291.872 150.223 297.111 147.124 301.612C145.501 304.046 142.992 306.002 139.598 307.477C136.204 308.879 132.109 309.58 127.313 309.58H110.933V344H101.747V267.413ZM124.436 267.634C120.156 267.634 115.655 267.893 110.933 268.409V308.473H127.313C137.717 308.031 142.918 300.579 142.918 286.117C142.918 280.214 141.369 275.677 138.27 272.504C135.171 269.258 130.56 267.634 124.436 267.634ZM171.97 344C168.945 344 166.621 343.336 164.998 342.008C163.448 340.68 162.637 339.352 162.563 338.024L162.452 336.142V288.663H170.2V336.142C170.2 338.282 170.605 339.942 171.417 341.122C172.302 342.229 173.151 342.819 173.962 342.893L175.291 343.115H178.721V344H171.97ZM163.116 276.267C162.231 275.382 161.788 274.275 161.788 272.947C161.788 271.619 162.231 270.512 163.116 269.627C164.002 268.667 165.108 268.188 166.437 268.188C167.765 268.188 168.871 268.667 169.757 269.627C170.716 270.512 171.196 271.619 171.196 272.947C171.196 274.275 170.716 275.382 169.757 276.267C168.871 277.152 167.765 277.595 166.437 277.595C165.108 277.595 164.002 277.152 163.116 276.267ZM184.879 344V343.115C186.428 343.115 187.978 342.524 189.527 341.344C191.15 340.163 192.368 338.983 193.179 337.802L207.014 317.438L187.313 288.663H195.393L212.326 313.343L228.706 288.663H229.813L212.769 314.118L233.354 344H225.275L207.456 318.102L195.503 336.031C195.356 336.253 195.171 336.548 194.95 336.917C194.729 337.286 194.249 337.913 193.511 338.798C192.773 339.684 191.999 340.458 191.187 341.122C188.974 343.041 186.871 344 184.879 344ZM244.729 316.995C244.729 326.144 246.315 332.859 249.488 337.138C252.734 341.418 256.977 343.557 262.215 343.557C269.593 343.557 276.16 342.451 281.915 340.237L282.247 341.012C276.345 343.299 269.667 344.443 262.215 344.443C254.837 344.443 248.824 342.229 244.175 337.802C239.527 333.375 237.203 326.55 237.203 317.327C237.203 308.105 239.638 300.948 244.507 295.857C249.377 290.765 255.575 288.22 263.101 288.22C269.151 288.22 274.242 290.028 278.374 293.643C282.506 297.258 284.571 302.608 284.571 309.691C284.571 310.06 284.571 310.429 284.571 310.798H245.061C244.839 312.79 244.729 314.856 244.729 316.995ZM277.046 309.912C276.972 302.829 275.607 297.59 272.951 294.196C270.294 290.802 266.864 289.105 262.658 289.105C258.452 289.105 254.689 290.95 251.369 294.639C248.123 298.328 246.057 303.419 245.171 309.912H277.046ZM306.488 344C299.995 344 295.9 342.303 294.203 338.909C293.834 338.171 293.649 337.507 293.649 336.917V261.105H301.397V336.142C301.397 338.282 301.802 339.942 302.614 341.122C303.499 342.229 304.385 342.819 305.27 342.893L306.488 343.115H309.919V344H306.488ZM349.499 292.536C348.319 291.577 346.401 290.765 343.744 290.101C341.162 289.437 339.207 289.105 337.879 289.105C336.551 289.105 335.776 289.105 335.554 289.105C331.57 289.179 328.693 290.212 326.922 292.204C325.151 294.123 324.266 296.299 324.266 298.734C324.266 301.169 325.04 303.235 326.59 304.932C328.139 306.555 330.058 307.846 332.345 308.805C334.706 309.691 337.215 310.724 339.871 311.904C342.601 313.085 345.109 314.302 347.397 315.557C349.758 316.737 351.713 318.508 353.262 320.869C354.812 323.156 355.587 326.034 355.587 329.502C355.587 332.969 354.369 335.921 351.934 338.356C349.499 340.79 346.769 342.414 343.744 343.225C340.793 344.037 337.583 344.443 334.116 344.443C326.59 344.443 320.945 342.783 317.182 339.462L317.846 338.798C319.322 340.2 321.499 341.344 324.376 342.229C327.328 343.115 330.168 343.557 332.898 343.557C337.251 343.557 340.83 342.377 343.634 340.016C346.511 337.581 347.95 334.593 347.95 331.051C347.95 327.436 346.88 324.558 344.74 322.418C342.601 320.205 339.981 318.508 336.883 317.327C333.857 316.073 330.795 314.856 327.697 313.675C324.598 312.421 321.978 310.724 319.839 308.584C317.699 306.371 316.629 303.825 316.629 300.948C316.629 298.07 317.293 295.746 318.621 293.975C319.949 292.13 321.72 290.839 323.934 290.101C327.697 288.847 331.459 288.22 335.222 288.22C341.568 288.22 346.511 289.4 350.053 291.762L349.499 292.536Z" fill="white"/>
<rect x="130" y="77" width="182" height="4" fill="white"/>
<rect x="196.464" y="272.186" width="224.145" height="4" transform="rotate(-60 196.464 272.186)" fill="white"/>
</g>
<defs>
<filter id="filter0_d_4_41" x="-4" y="0" width="434" height="434" filterUnits="userSpaceOnUse" color-interpolation-filters="sRGB">
<feFlood flood-opacity="0" result="BackgroundImageFix"/>
<feColorMatrix in="SourceAlpha" type="matrix" values="0 0 0 0 0 0 0 0 0 0 0 0 0 0 0 0 0 0 127 0" result="hardAlpha"/>
<feOffset dy="4"/>
<feGaussianBlur stdDeviation="2"/>
<feComposite in2="hardAlpha" operator="out"/>
<feColorMatrix type="matrix" values="0 0 0 0 0 0 0 0 0 0 0 0 0 0 0 0 0 0 0.25 0"/>
<feBlend mode="normal" in2="BackgroundImageFix" result="effect1_dropShadow_4_41"/>
<feBlend mode="normal" in="SourceGraphic" in2="effect1_dropShadow_4_41" result="shape"/>
</filter>
</defs>
</svg>
